<?xml version="1.0" encoding="UTF-8"?><svg xmlns="http://www.w3.org/2000/svg" xmlns:xlink="http://www.w3.org/1999/xlink" width="375pt" zoomAndPan="magnify" viewBox="0 0 375 374.999991" height="374.999991pt" preserveAspectRatio="xMidYMid meet" version="1.2"><defs><g/><clipPath xml:id="clip1" id="clip1"><path d="M 58.992188 142.46875 L 148.992188 142.46875 L 148.992188 232.46875 L 58.992188 232.46875 Z M 58.992188 142.46875 "/></clipPath></defs><g xml:id="surface1" id="surface1"><g clip-rule="nonzero" clip-path="url(#clip1)"><path style=" stroke:none;fill-rule:nonzero;fill:rgb(0%,29.019165%,67.83905%);fill-opacity:1;" d="M 68.777344 187.46875 L 79.257812 197.949219 L 74.367188 202.839844 L 58.992188 187.46875 L 74.296875 172.167969 L 79.1875 177.058594 Z M 103.992188 152.25 L 119.507812 167.765625 L 113.917969 173.355469 L 103.992188 163.433594 L 99.171875 168.253906 L 113.984375 183.066406 L 129.289062 167.765625 L 103.992188 142.46875 L 79.1875 167.277344 L 119.574219 207.664062 L 104.273438 222.964844 L 89.179688 207.871094 L 94.769531 202.28125 L 104.339844 211.855469 L 109.164062 207.03125 L 94.699219 192.570312 L 79.398438 207.875 L 103.992188 232.46875 L 128.800781 207.664062 L 88.691406 167.554688 Z M 84.777344 182.648438 L 79.957031 187.46875 L 84.847656 192.359375 L 89.667969 187.539062 Z M 123.558594 192.640625 L 128.378906 187.820312 L 123.488281 182.929688 L 118.667969 187.75 Z M 133.972656 172.445312 L 129.078125 177.335938 L 139.492188 187.75 L 129.078125 198.160156 L 133.691406 202.773438 L 148.996094 187.472656 Z M 133.972656 172.445312 "/></g><g style="fill:rgb(13.328552%,12.548828%,10.978699%);fill-opacity:1;"><g transform="translate(157.054916, 176.099974)"><path style="stroke:none;" d="M 9.4375 0.484375 C 7.925781 0.484375 6.507812 0.140625 5.1875 -0.546875 C 4.582031 -0.835938 4.082031 -1.1875 3.6875 -1.59375 C 3.382812 -1.101562 3.007812 -0.664062 2.5625 -0.28125 C 2.175781 -0.0078125 1.960938 0.132812 1.921875 0.15625 L 1.125 0.15625 L 1.125 -5.921875 L 2.40625 -5.921875 C 2.71875 -4.878906 3.164062 -3.941406 3.75 -3.109375 C 5.050781 -1.242188 6.734375 -0.3125 8.796875 -0.3125 C 10.015625 -0.3125 10.984375 -0.675781 11.703125 -1.40625 C 12.429688 -2.132812 12.796875 -3.101562 12.796875 -4.3125 C 12.796875 -5.019531 12.585938 -5.648438 12.171875 -6.203125 C 11.753906 -6.765625 11.238281 -7.253906 10.625 -7.671875 C 10.007812 -8.097656 9.144531 -8.632812 8.03125 -9.28125 C 6.625 -10.070312 5.484375 -10.785156 4.609375 -11.421875 C 3.734375 -12.066406 2.984375 -12.875 2.359375 -13.84375 C 1.742188 -14.8125 1.4375 -15.957031 1.4375 -17.28125 C 1.4375 -18.320312 1.726562 -19.265625 2.3125 -20.109375 C 2.90625 -20.953125 3.785156 -21.625 4.953125 -22.125 C 6.128906 -22.625 7.570312 -22.875 9.28125 -22.875 C 10.519531 -22.875 11.753906 -22.523438 12.984375 -21.828125 C 13.460938 -21.566406 13.9375 -21.222656 14.40625 -20.796875 C 14.757812 -21.347656 15.128906 -21.785156 15.515625 -22.109375 C 15.898438 -22.390625 16.113281 -22.539062 16.15625 -22.5625 L 16.953125 -22.5625 L 16.953125 -16.484375 L 15.6875 -16.484375 C 15.40625 -17.503906 14.988281 -18.429688 14.4375 -19.265625 C 13.914062 -20.078125 13.273438 -20.75 12.515625 -21.28125 C 11.765625 -21.8125 10.898438 -22.078125 9.921875 -22.078125 C 9.085938 -22.078125 8.367188 -21.742188 7.765625 -21.078125 C 7.171875 -20.421875 6.875 -19.582031 6.875 -18.5625 C 6.875 -17.769531 7.101562 -17.054688 7.5625 -16.421875 C 8.019531 -15.796875 8.582031 -15.25 9.25 -14.78125 C 9.925781 -14.3125 10.84375 -13.75 12 -13.09375 C 13.34375 -12.320312 14.429688 -11.632812 15.265625 -11.03125 C 16.097656 -10.4375 16.800781 -9.695312 17.375 -8.8125 C 17.945312 -7.925781 18.234375 -6.910156 18.234375 -5.765625 C 18.234375 -4.609375 17.898438 -3.554688 17.234375 -2.609375 C 16.578125 -1.660156 15.585938 -0.90625 14.265625 -0.34375 C 12.941406 0.207031 11.332031 0.484375 9.4375 0.484375 Z M 9.4375 0.484375 "/></g></g><g style="fill:rgb(13.328552%,12.548828%,10.978699%);fill-opacity:1;"><g transform="translate(178.97024, 176.099974)"><path style="stroke:none;" d="M 1.59375 0 L 1.59375 -0.484375 L 3.515625 -0.953125 L 3.515625 -21.4375 L 1.59375 -21.921875 L 1.59375 -22.40625 L 10.71875 -22.40625 L 10.71875 -21.921875 L 8.796875 -21.4375 L 8.796875 -11.515625 L 15.6875 -11.515625 L 15.6875 -21.4375 L 13.765625 -21.921875 L 13.765625 -22.40625 L 22.875 -22.40625 L 22.875 -21.921875 L 20.953125 -21.4375 L 20.953125 -0.953125 L 22.875 -0.484375 L 22.875 0 L 13.765625 0 L 13.765625 -0.484375 L 15.6875 -0.953125 L 15.6875 -10.71875 L 8.796875 -10.71875 L 8.796875 -0.953125 L 10.71875 -0.484375 L 10.71875 0 Z M 1.59375 0 "/></g></g><g style="fill:rgb(13.328552%,12.548828%,10.978699%);fill-opacity:1;"><g transform="translate(206.324221, 176.099974)"><path style="stroke:none;" d="M 12.640625 0.484375 C 9.484375 0.484375 7.09375 -0.253906 5.46875 -1.734375 C 3.851562 -3.222656 3.046875 -5.3125 3.046875 -8 L 3.046875 -21.4375 L 1.125 -21.921875 L 1.125 -22.40625 L 10.234375 -22.40625 L 10.234375 -21.921875 L 8.3125 -21.4375 L 8.3125 -8 C 8.3125 -5.25 8.738281 -3.28125 9.59375 -2.09375 C 10.445312 -0.90625 11.675781 -0.3125 13.28125 -0.3125 C 14.257812 -0.3125 15.191406 -0.625 16.078125 -1.25 C 16.960938 -1.882812 17.675781 -2.785156 18.21875 -3.953125 C 18.769531 -5.117188 19.046875 -6.46875 19.046875 -8 L 19.046875 -20.953125 L 16.484375 -21.921875 L 16.484375 -22.40625 L 22.5625 -22.40625 L 22.5625 -21.921875 L 20 -20.953125 L 20 -8 C 20 -6.269531 19.675781 -4.765625 19.03125 -3.484375 C 18.394531 -2.203125 17.519531 -1.21875 16.40625 -0.53125 C 15.300781 0.144531 14.046875 0.484375 12.640625 0.484375 Z M 12.640625 0.484375 "/></g></g><g style="fill:rgb(13.328552%,12.548828%,10.978699%);fill-opacity:1;"><g transform="translate(231.918639, 176.099974)"><path style="stroke:none;" d="M 1.59375 -0.484375 L 3.515625 -0.953125 L 3.515625 -21.4375 L 1.59375 -21.921875 L 1.59375 -22.40625 L 10.234375 -22.40625 C 13.484375 -22.40625 15.867188 -21.882812 17.390625 -20.84375 C 18.921875 -19.8125 19.6875 -18.460938 19.6875 -16.796875 C 19.6875 -15.648438 19.351562 -14.722656 18.6875 -14.015625 C 18.03125 -13.304688 17.1875 -12.785156 16.15625 -12.453125 C 15.070312 -12.066406 13.898438 -11.863281 12.640625 -11.84375 L 12.640625 -11.6875 C 14.191406 -11.613281 15.546875 -11.375 16.703125 -10.96875 C 17.878906 -10.59375 18.851562 -10 19.625 -9.1875 C 20.40625 -8.375 20.796875 -7.335938 20.796875 -6.078125 C 20.796875 -4.179688 20.015625 -2.691406 18.453125 -1.609375 C 16.898438 -0.535156 14.375 0 10.875 0 L 1.59375 0 Z M 10.234375 -12.15625 C 10.941406 -12.15625 11.597656 -12.351562 12.203125 -12.75 C 12.816406 -13.144531 13.304688 -13.695312 13.671875 -14.40625 C 14.046875 -15.125 14.234375 -15.921875 14.234375 -16.796875 C 14.234375 -17.734375 14.046875 -18.566406 13.671875 -19.296875 C 13.304688 -20.023438 12.816406 -20.585938 12.203125 -20.984375 C 11.597656 -21.390625 10.941406 -21.59375 10.234375 -21.59375 L 8.796875 -21.59375 L 8.796875 -12.15625 Z M 10.875 -0.796875 C 12.195312 -0.796875 13.273438 -1.265625 14.109375 -2.203125 C 14.941406 -3.140625 15.359375 -4.429688 15.359375 -6.078125 C 15.359375 -7.722656 14.941406 -9.015625 14.109375 -9.953125 C 13.273438 -10.890625 12.195312 -11.359375 10.875 -11.359375 L 8.796875 -11.359375 L 8.796875 -0.796875 Z M 10.875 -0.796875 "/></g></g><g style="fill:rgb(13.328552%,12.548828%,10.978699%);fill-opacity:1;"><g transform="translate(256.553298, 176.099974)"><path style="stroke:none;" d="M 1.59375 0 L 1.59375 -0.484375 L 3.515625 -0.953125 L 3.515625 -21.4375 L 1.59375 -21.921875 L 1.59375 -22.40625 L 10.71875 -22.40625 L 10.71875 -21.921875 L 8.796875 -21.4375 L 8.796875 -11.515625 L 15.6875 -11.515625 L 15.6875 -21.4375 L 13.765625 -21.921875 L 13.765625 -22.40625 L 22.875 -22.40625 L 22.875 -21.921875 L 20.953125 -21.4375 L 20.953125 -0.953125 L 22.875 -0.484375 L 22.875 0 L 13.765625 0 L 13.765625 -0.484375 L 15.6875 -0.953125 L 15.6875 -10.71875 L 8.796875 -10.71875 L 8.796875 -0.953125 L 10.71875 -0.484375 L 10.71875 0 Z M 1.59375 0 "/></g></g><g style="fill:rgb(13.328552%,12.548828%,10.978699%);fill-opacity:1;"><g transform="translate(167.613509, 220.349971)"><path style="stroke:none;" d="M 5.59375 -0.484375 L 7.515625 -0.953125 L 7.515625 -21.59375 L 3.84375 -21.59375 C 3.84375 -20.289062 3.488281 -19.046875 2.78125 -17.859375 C 2.488281 -17.367188 2.148438 -16.960938 1.765625 -16.640625 L 0.796875 -16.640625 L 0.796875 -22.40625 L 19.515625 -22.40625 L 19.515625 -16.640625 L 18.5625 -16.640625 C 18.15625 -16.960938 17.800781 -17.367188 17.5 -17.859375 C 16.820312 -19.003906 16.484375 -20.25 16.484375 -21.59375 L 12.796875 -21.59375 L 12.796875 -0.953125 L 14.71875 -0.484375 L 14.71875 0 L 5.59375 0 Z M 5.59375 -0.484375 "/></g></g><g style="fill:rgb(13.328552%,12.548828%,10.978699%);fill-opacity:1;"><g transform="translate(190.808512, 220.349971)"><path style="stroke:none;" d="M 1.59375 -0.484375 L 3.515625 -0.953125 L 3.515625 -21.4375 L 1.59375 -21.921875 L 1.59375 -22.40625 L 18.71875 -22.40625 L 18.71875 -16.640625 L 17.765625 -16.640625 C 17.359375 -16.960938 17.003906 -17.367188 16.703125 -17.859375 C 16.023438 -19.003906 15.6875 -20.25 15.6875 -21.59375 L 8.796875 -21.59375 L 8.796875 -11.515625 L 12.484375 -11.515625 C 12.628906 -12.328125 12.90625 -13.085938 13.3125 -13.796875 C 13.476562 -14.109375 13.679688 -14.414062 13.921875 -14.71875 L 14.875 -14.71875 L 14.875 -7.515625 L 13.921875 -7.515625 C 13.679688 -7.816406 13.476562 -8.128906 13.3125 -8.453125 C 12.90625 -9.148438 12.628906 -9.90625 12.484375 -10.71875 L 8.796875 -10.71875 L 8.796875 -0.796875 L 16.3125 -0.796875 C 16.3125 -2.140625 16.65625 -3.390625 17.34375 -4.546875 C 17.644531 -5.035156 18 -5.441406 18.40625 -5.765625 L 19.359375 -5.765625 L 19.359375 0 L 1.59375 0 Z M 1.59375 -0.484375 "/></g></g><g style="fill:rgb(13.328552%,12.548828%,10.978699%);fill-opacity:1;"><g transform="translate(214.323445, 220.349971)"><path style="stroke:none;" d="M -0.640625 -0.484375 L 1.921875 -1.4375 L 10.71875 -22.71875 L 11.6875 -22.71875 L 20.796875 -0.953125 L 22.40625 -0.484375 L 22.40625 0 L 18.5625 0 C 17.445312 0 16.535156 -0.25 15.828125 -0.75 C 15.128906 -1.25 14.609375 -1.90625 14.265625 -2.71875 L 12.640625 -6.5625 L 4.984375 -6.5625 L 2.875 -1.4375 L 5.28125 -0.484375 L 5.28125 0 L -0.640625 0 Z M 5.3125 -7.359375 L 12.3125 -7.359375 L 8.796875 -15.78125 Z M 5.3125 -7.359375 "/></g></g><g style="fill:rgb(13.328552%,12.548828%,10.978699%);fill-opacity:1;"><g transform="translate(238.958101, 220.349971)"><path style="stroke:none;" d="M 4.484375 -18.40625 L 4.484375 -1.4375 L 7.046875 -0.484375 L 7.046875 0 L 0.953125 0 L 0.953125 -0.484375 L 3.515625 -1.4375 L 3.515625 -21.4375 L 1.59375 -21.921875 L 1.59375 -22.40625 L 5.59375 -22.40625 C 6.707031 -22.40625 7.585938 -22.175781 8.234375 -21.71875 C 8.890625 -21.257812 9.453125 -20.582031 9.921875 -19.6875 L 16.890625 -6.34375 L 22.234375 -19.6875 C 22.597656 -20.625 23.085938 -21.3125 23.703125 -21.75 C 24.328125 -22.1875 25.28125 -22.40625 26.5625 -22.40625 L 29.921875 -22.40625 L 29.921875 -21.921875 L 28 -21.4375 L 28 -0.953125 L 29.921875 -0.484375 L 29.921875 0 L 20.796875 0 L 20.796875 -0.484375 L 22.71875 -0.953125 L 22.71875 -18.40625 L 15.203125 0.3125 L 14.234375 0.3125 Z M 4.484375 -18.40625 "/></g></g></g></svg>